# xmcd CD database file
#
# Track frame offsets:
#	150
#	27191
#	49070
#	75219
#	99415
#	116148
#	140743
#	156105
#	181619
#	196905
#	227589
#
# Disc length: 3122 seconds
#
# Revision: 0
# Processed by: cddbd v1.5.1PL2 Copyright (c) Steve Scherf et al.
# Submitted via: CDex 1.50
#
DISCID=7f0c300b
DTITLE=Trey Wright - Where I'm Calling From
DYEAR=2006
DGENRE=Jazz
TTITLE0=You Should Know By Now
TTITLE1=Muse
TTITLE2=Control
TTITLE3=Reflections
TTITLE4=In the Open
TTITLE5=River Man
TTITLE6=Capoed
TTITLE7=The Snakes In Your Head
TTITLE8=Garlic and Greens
TTITLE9=Departure
TTITLE10=Drake
EXTD=YEAR: 2006
EXTT0=
EXTT1=
EXTT2=
EXTT3=
EXTT4=
EXTT5=
EXTT6=
EXTT7=
EXTT8=
EXTT9=
EXTT10=
PLAYORDER=
